<?xml version="1.0" standalone="no"?>
<!DOCTYPE svg PUBLIC "-//W3C//DTD SVG 20010904//EN"
 "http://www.w3.org/TR/2001/REC-SVG-20010904/DTD/svg10.dtd">
<svg version="1.0" xmlns="http://www.w3.org/2000/svg"
 width="128.000000pt" height="128.000000pt" viewBox="0 0 128.000000 128.000000"
 preserveAspectRatio="xMidYMid meet">
<metadata>
Created by potrace 1.14, written by Peter Selinger 2001-2017
</metadata>
<g transform="translate(0.000000,128.000000) scale(0.100000,-0.100000)"
fill="#000000" stroke="none">
<path d="M335 1081 c-69 -17 -132 -69 -158 -130 -18 -45 -17 -132 2 -176 37
-82 104 -127 196 -131 97 -4 168 40 211 130 52 111 0 245 -112 292 -43 18
-100 24 -139 15z"/>
<path d="M881 1005 c-30 -13 -51 -33 -92 -83 -17 -20 -23 -116 -10 -153 37
-109 168 -159 271 -103 124 68 134 245 18 322 -49 32 -136 40 -187 17z"/>
<path d="M158 563 c-48 -14 -108 -65 -134 -115 -9 -18 -19 -64 -22 -102 -6
-80 14 -129 57 -144 14 -5 167 -8 339 -8 l314 1 30 34 c29 32 30 37 26 105 -7
109 -46 174 -132 218 -48 24 -103 26 -177 5 -57 -16 -103 -14 -174 6 -55 15
-77 15 -127 0z"/>
<path d="M797 563 l-47 -14 24 -32 c38 -49 49 -84 55 -176 l6 -84 180 1 c99 0
185 1 192 1 7 1 24 11 38 24 69 59 26 200 -80 262 -45 27 -48 27 -200 22 -33
-1 -73 1 -90 4 -16 4 -51 0 -78 -8z"/>
</g>
</svg>
